<svg aria-hidden="true" style="position: absolute; width: 0; height: 0; overflow: hidden;" version="1.1" xmlns="http://www.w3.org/2000/svg" xmlns:xlink="http://www.w3.org/1999/xlink">
<defs>
<symbol id="icon-Button-f" viewBox="0 0 33 32">
<path fill="#c91ae8" style="fill: var(--color1, #c91ae8)" d="M16.181 0c-8.921 0-16.181 7.177-16.181 16s7.259 16 16.181 16c8.921 0 16.181-7.177 16.181-16s-7.259-16-16.181-16zM16.181 30.934c-8.327 0-15.101-6.7-15.101-14.934s6.774-14.934 15.101-14.934c8.327 0 15.101 6.7 15.101 14.934s-6.774 14.934-15.101 14.934z"></path>
<path fill="#c91ae8" style="fill: var(--color1, #c91ae8)" d="M20.299 6.937h-2.927c-3.728-0.034-4.204 2.069-4.204 4.345v1.655h-1.646c-0.074-0.009-0.15-0.002-0.221 0.020s-0.136 0.059-0.189 0.107c-0.053 0.048-0.093 0.107-0.117 0.172s-0.031 0.134-0.021 0.201v3c-0.010 0.068-0.003 0.137 0.021 0.202s0.064 0.124 0.117 0.172c0.053 0.048 0.118 0.085 0.189 0.107s0.147 0.029 0.221 0.020h1.646v7.5c-0.009 0.068-0.001 0.137 0.024 0.201s0.065 0.123 0.118 0.171c0.053 0.048 0.118 0.085 0.189 0.107s0.147 0.029 0.221 0.021h3.351c0.324 0.034 0.586-0.205 0.483-0.5l0.002-7.5h2.742c0.074 0.009 0.15 0.002 0.221-0.020s0.136-0.059 0.189-0.107c0.053-0.048 0.093-0.107 0.117-0.172s0.031-0.134 0.021-0.202v-3c0.010-0.068 0.003-0.137-0.021-0.201s-0.064-0.124-0.117-0.172c-0.053-0.048-0.118-0.085-0.189-0.107s-0.147-0.029-0.221-0.020h-2.746l0.003-1.5c0.106-0.639 0.106-0.535 0.757-0.5h1.963c0.153-0.031 0.315-0.014 0.429-0.115s0.18-0.239 0.142-0.385v-3c0.010-0.068 0.003-0.137-0.021-0.202s-0.064-0.124-0.117-0.172c-0.053-0.048-0.118-0.085-0.189-0.107s-0.147-0.029-0.221-0.019zM19.712 9.881l-1.376-0.048c-1.704 0-1.846 0.843-1.846 1.706l-0.004 1.896c-0 0.070 0.015 0.14 0.044 0.205s0.073 0.124 0.127 0.174 0.119 0.089 0.19 0.116c0.071 0.027 0.147 0.041 0.224 0.041h2.679v1.932h-2.677c-0.155 0-0.305 0.056-0.415 0.156s-0.172 0.236-0.172 0.378l-0.001 7.501h-2.22v-7.5c0-0.295-0.22-0.534-0.545-0.534h-1.649v-1.932h1.649c0.077 0 0.153-0.013 0.225-0.040s0.136-0.066 0.19-0.116c0.11-0.101 0.13-0.237 0.13-0.379v-2.155c0-2.242 0.497-3.31 3.107-3.31h2.34l0.001 1.91z"></path>
</symbol>
<symbol id="icon-Button-inst" viewBox="0 0 32 32">
<path fill="none" stroke="#c91ae8" style="stroke: var(--color1, #c91ae8)" stroke-linejoin="round" stroke-linecap="round" stroke-miterlimit="4" stroke-width="1.0667" d="M25.667 3.667h-19.333c-1.473 0-2.667 1.194-2.667 2.667v19.333c0 1.473 1.194 2.667 2.667 2.667h19.333c1.473 0 2.667-1.194 2.667-2.667v-19.333c0-1.473-1.194-2.667-2.667-2.667z"></path>
<path fill="none" stroke="#c91ae8" style="stroke: var(--color1, #c91ae8)" stroke-linejoin="round" stroke-linecap="round" stroke-miterlimit="4" stroke-width="0.4907" d="M23.567 9.933c0.828 0 1.5-0.672 1.5-1.5s-0.672-1.5-1.5-1.5c-0.828 0-1.5 0.672-1.5 1.5s0.672 1.5 1.5 1.5z"></path>
<path fill="none" stroke="#c91ae8" style="stroke: var(--color1, #c91ae8)" stroke-linejoin="round" stroke-linecap="round" stroke-miterlimit="4" stroke-width="1.0667" d="M16 21.5c3.038 0 5.5-2.462 5.5-5.5s-2.462-5.5-5.5-5.5c-3.038 0-5.5 2.462-5.5 5.5s2.462 5.5 5.5 5.5z"></path>
</symbol>
<symbol id="icon-Button-yt" viewBox="0 0 32 32">
<path fill="none" stroke="#c91ae8" style="stroke: var(--color1, #c91ae8)" stroke-linejoin="round" stroke-linecap="round" stroke-miterlimit="4" stroke-width="0.8" d="M28.741 9.596c-0.152-0.565-0.449-1.080-0.862-1.493s-0.928-0.711-1.493-0.862c-1.543-0.596-16.488-0.888-20.824 0.017-0.565 0.152-1.080 0.449-1.493 0.863s-0.711 0.929-0.862 1.493c-0.697 3.055-0.749 9.661 0.017 12.785 0.152 0.565 0.449 1.080 0.862 1.493s0.928 0.711 1.493 0.862c3.055 0.703 17.581 0.802 20.824 0 0.565-0.152 1.080-0.449 1.493-0.862s0.711-0.928 0.862-1.493c0.743-3.329 0.795-9.525-0.017-12.802z"></path>
<path fill="none" stroke="#c91ae8" style="stroke: var(--color1, #c91ae8)" stroke-linejoin="round" stroke-linecap="round" stroke-miterlimit="4" stroke-width="0.8" d="M20.378 15.997l-6.965-3.994v7.988l6.965-3.994z"></path>
</symbol>
<symbol id="icon-Vector" viewBox="0 0 26 32">
<path fill="#c91ae8" style="fill: var(--color1, #c91ae8)" d="M13.115 0.197c2.711 0 4.918 2.207 4.918 4.918v7.81c1.874-1.679 4.959-1.605 6.756 0.188 0.922 0.922 1.44 2.173 1.44 3.477s-0.518 2.555-1.44 3.477l-11.674 11.674-11.674-11.674c-0.922-0.922-1.44-2.173-1.44-3.477s0.518-2.555 1.44-3.477c1.793-1.795 4.884-1.869 6.756-0.188v-7.81c0-2.711 2.207-4.918 4.918-4.918zM14.754 20.83v-15.715c-0.019-0.422-0.2-0.821-0.505-1.113s-0.712-0.455-1.134-0.455c-0.423 0-0.829 0.163-1.134 0.455s-0.486 0.691-0.505 1.113v15.715l-5.398-5.398c-0.312-0.298-0.727-0.465-1.159-0.465s-0.847 0.167-1.159 0.465c-0.307 0.307-0.48 0.724-0.48 1.159s0.173 0.852 0.48 1.159l9.356 9.356 9.356-9.356c0.307-0.307 0.48-0.724 0.48-1.159s-0.173-0.852-0.48-1.159c-0.312-0.298-0.727-0.465-1.159-0.465s-0.847 0.167-1.159 0.465l-5.398 5.398z"></path>
</symbol>

<symbol id="bullet-icon" viewBox="0 0 22 22" fill="none">
  <path d="M12.0998 2.19995C11.5163 2.19995 10.9568 2.43174 10.5442 2.84432C10.1316 3.2569 9.89981 3.81647 9.89981 4.39995H7.1498C6.7122 4.39995 6.29251 4.57379 5.98308 4.88322C5.67364 5.19266 5.4998 5.61234 5.4998 6.04995V8.79995C4.91633 8.79995 4.35675 9.03174 3.94417 9.44432C3.53159 9.8569 3.2998 10.4165 3.2998 11C3.2998 11.5834 3.53159 12.143 3.94417 12.5556C4.35675 12.9682 4.91633 13.2 5.4998 13.2V15.95C5.4998 16.3876 5.67364 16.8072 5.98308 17.1167C6.29251 17.4261 6.7122 17.6 7.1498 17.6H9.89981C9.89981 18.1834 10.1316 18.743 10.5442 19.1556C10.9568 19.5682 11.5163 19.8 12.0998 19.8C12.6833 19.8 13.2429 19.5682 13.6554 19.1556C14.068 18.743 14.2998 18.1834 14.2998 17.6H17.0498C17.4874 17.6 17.9071 17.4261 18.2165 17.1167C18.526 16.8072 18.6998 16.3876 18.6998 15.95V13.2H17.5998C17.0163 13.2 16.4568 12.9682 16.0442 12.5556C15.6316 12.143 15.3998 11.5834 15.3998 11C15.3998 10.4165 15.6316 9.8569 16.0442 9.44432C16.4568 9.03174 17.0163 8.79995 17.5998 8.79995H18.6998V6.04995C18.6998 5.61234 18.526 5.19266 18.2165 4.88322C17.9071 4.57379 17.4874 4.39995 17.0498 4.39995H14.2998C14.2998 3.81647 14.068 3.2569 13.6554 2.84432C13.2429 2.43174 12.6833 2.19995 12.0998 2.19995Z" fill="url(#paint0_linear_124_825)" />
  <defs>
    <linearGradient id="paint0_linear_124_825" x1="13.3835" y1="4.36145" x2="17.3226" y2="21.4885" gradientUnits="userSpaceOnUse">
      <stop stop-color="#FF6CE8" stop-opacity="0.99" />
      <stop offset="1" stop-color="#C91AE8" />
    </linearGradient>
  </defs>
</symbol>

</defs>
</svg>
